<svg xmlns="http://www.w3.org/2000/svg" xmlns:xlink="http://www.w3.org/1999/xlink" width="128" height="128" viewBox="0 0 128 128">
  <defs>
    <linearGradient id="linear-gradient" x1="0.5" x2="0.5" y2="1" gradientUnits="objectBoundingBox">
      <stop offset="0" stop-color="#ff4d00"/>
      <stop offset="1" stop-color="#ff6700"/>
    </linearGradient>
    <linearGradient id="linear-gradient-2" x1="0.204" y1="1.317" x2="1.573" y2="-2.071" gradientUnits="objectBoundingBox">
      <stop offset="0" stop-color="#ff8100"/>
      <stop offset="1" stop-color="#ffa700"/>
    </linearGradient>
  </defs>
  <g id="Boatwale_logo_dark_128x128" data-name="Boatwale logo dark 128x128" transform="translate(-21033 -7689)">
    <rect id="Rectangle_149" data-name="Rectangle 149" width="128" height="128" transform="translate(21033 7689)" fill="#fff" opacity="0"/>
    <g id="Boatwale_logo_light" data-name="Boatwale logo light" transform="translate(2233.34 5508.984)">
      <path id="Path_249" data-name="Path 249" d="M15.74-62.2a3.832,3.832,0,0,1,2.038,3.544,4.166,4.166,0,0,1-1.4,3.234,4.93,4.93,0,0,1-3.434,1.263H6.37V-69.662h6.114a4.826,4.826,0,0,1,3.356,1.229A4.035,4.035,0,0,1,17.2-65.3,3.781,3.781,0,0,1,15.74-62.2ZM12.484-66.8H9.427v3.411h3.057a1.59,1.59,0,0,0,1.185-.487,1.673,1.673,0,0,0,.476-1.218,1.7,1.7,0,0,0-.465-1.218A1.58,1.58,0,0,0,12.484-66.8Zm.465,9.791a1.722,1.722,0,0,0,1.285-.521,1.807,1.807,0,0,0,.509-1.318,1.779,1.779,0,0,0-.509-1.3,1.722,1.722,0,0,0-1.285-.521H9.427v3.655Zm19.87.831A7.8,7.8,0,0,1,27.1-53.846a7.761,7.761,0,0,1-5.7-2.337,7.787,7.787,0,0,1-2.337-5.726A7.787,7.787,0,0,1,21.4-67.635a7.761,7.761,0,0,1,5.7-2.337,7.8,7.8,0,0,1,5.715,2.337,7.768,7.768,0,0,1,2.348,5.726A7.768,7.768,0,0,1,32.819-56.183Zm-9.282-2.082A4.863,4.863,0,0,0,27.1-56.836a4.863,4.863,0,0,0,3.566-1.429,4.915,4.915,0,0,0,1.44-3.644,4.952,4.952,0,0,0-1.44-3.655A4.844,4.844,0,0,0,27.1-67a4.844,4.844,0,0,0-3.566,1.44,4.952,4.952,0,0,0-1.44,3.655A4.915,4.915,0,0,0,23.538-58.265Zm23.416,4.109-.986-2.791H39.6l-.93,2.791h-3.3l5.427-15.506h3.788l5.47,15.506ZM40.594-59.8h4.364L42.721-66.14Zm20.092-9.857v2.924H56.5v12.582H53.442V-66.738H49.278v-2.924Z" transform="translate(18801.291 2321.926)" fill="#ff5800"/>
      <g id="Group_103" data-name="Group 103" transform="translate(18825.047 2220.016)">
        <path id="Path_246" data-name="Path 246" d="M89.911,6.847c-.372-.074-26.708,5.522-26.484,5.3s9.7-7.611,15.668-9.773S94.762-.687,100.133.58a77.091,77.091,0,0,1,11.49,3.805c-.221,0-3.356-1.643-12.982-.9S86.108,4.758,86.108,4.758" transform="translate(-50.591 0.002)" fill="url(#linear-gradient)"/>
        <path id="Path_247" data-name="Path 247" d="M21.713,36.038A115.712,115.712,0,0,1,63.988,24.7c23.675-1.492,32.926-1.194,32.926-1.194a33.891,33.891,0,0,1-7.362,11.638c-5.273,5.371-7.162,6.466-12.933,6.565a121.317,121.317,0,0,1-12.434-.6s8.952.3,14.225-3.082,9.45-10.644,9.45-10.644-46.255.6-66.15,8.654Z" transform="translate(-21.71 -16.257)" fill="url(#linear-gradient-2)"/>
      </g>
      <path id="Path_250" data-name="Path 250" d="M254.629-53.094,250.292-68.6h2.166l3.549,12.759L259.773-68.6h2.081l3.766,12.761L269.165-68.6h2.051l-4.333,15.506h-2.392L260.8-65.514l-3.689,12.42Zm28.248,0-1.265-3.478H274.64l-1.266,3.478h-2.193L276.963-68.6h2.326l5.782,15.506ZM275.34-58.5h5.57l-2.785-7.655Zm13.628,3.456h6.69v1.949h-8.75V-68.6h2.06Zm10.81,0h7.2v1.949h-9.259V-68.6h9.149v1.949h-7.089v4.763h6.535v1.927h-6.535Z" transform="translate(18612.686 2320.864)" fill="#404040"/>
    </g>
  </g>
</svg>
